<svg width="120" height="120" viewBox="0 0 24 24" fill="none" xmlns="http://www.w3.org/2000/svg">
  <rect width="24" height="24" rx="4" fill="#f3f4f6"/>
  <path fill-rule="evenodd" clip-rule="evenodd" d="M5.93063 3.9307C7.64633 2.2149 10.1806 1.5 12 1.5C13.8194 1.5 16.3537 2.2149 18.0694 3.9307C19.7851 5.64633 20.5 8.1806 20.5 10C20.5 11.8194 19.7851 14.3537 18.0694 16.0694C16.3537 17.7851 13.8194 18.5 12 18.5C10.1806 18.5 7.64633 17.7851 5.93063 16.0694C4.2149 14.3537 3.5 11.8194 3.5 10C3.5 8.1806 4.2149 5.64633 5.93063 3.9307ZM19.0694 4.9307C17.6463 3.5076 15.4594 2.5 12 2.5C8.54056 2.5 6.35366 3.5076 4.93063 4.9307C3.50773 6.35366 2.5 8.54056 2.5 10C2.5 11.4594 3.50773 13.6463 4.93063 15.0694C6.35366 16.4923 8.54056 17.5 12 17.5C15.4594 17.5 17.6463 16.4923 19.0694 15.0694C20.4923 13.6463 21.5 11.4594 21.5 10C21.5 8.54056 20.4923 6.35366 19.0694 4.9307Z" fill="#9ca3af"/>
  <path fill-rule="evenodd" clip-rule="evenodd" d="M7.64644 7.64644C7.84171 7.45117 8.15829 7.45117 8.35355 7.64644L12 11.2929L15.6464 7.64644C15.8417 7.45117 16.1583 7.45117 16.3535 7.64644C16.5488 7.8417 16.5488 8.15828 16.3535 8.35355L12.7071 12L16.3535 15.6464C16.5488 15.8417 16.5488 16.1583 16.3535 16.3535C16.1583 16.5488 15.8417 16.5488 15.6464 16.3535L12 12.7071L8.35355 16.3535C8.15829 16.5488 7.84171 16.5488 7.64644 16.3535C7.45118 16.1583 7.45118 15.8417 7.64644 15.6464L11.2929 12L7.64644 8.35355C7.45118 8.15828 7.45118 7.8417 7.64644 7.64644Z" fill="#9ca3af"/>
  <text x="12" y="22" text-anchor="middle" font-size="2.5" font-family="Arial, sans-serif" fill="#6b7280">图片加载失败</text>
</svg>
